<svg preserveAspectRatio="none" overflow="visible" style="display: block;" width="16" height="16" viewBox="0 0 16 16" fill="none" xmlns="http://www.w3.org/2000/svg">
<g id="Frame 21469">
<rect x="0.551724" y="0.551724" width="14.8966" height="14.8966" rx="2.75862" stroke="#0CA650" stroke-width="1.10345"/>
<path id="Vector" d="M11.5862 8C11.5862 8.70928 11.3759 9.40264 10.9818 9.99239C10.5878 10.5821 10.0277 11.0418 9.37238 11.3132C8.71709 11.5847 7.99602 11.6557 7.30037 11.5173C6.60471 11.3789 5.96571 11.0374 5.46417 10.5358C4.96263 10.0343 4.62108 9.39529 4.4827 8.69963C4.34433 8.00398 4.41535 7.28291 4.68678 6.62762C4.95821 5.97232 5.41786 5.41224 6.00761 5.01818C6.59736 4.62412 7.29072 4.41379 8 4.41379C8.95112 4.41379 9.86329 4.79162 10.5358 5.46417C11.2084 6.13671 11.5862 7.04888 11.5862 8Z" fill="#0CA650"/>
</g>
</svg>
